/* XPM */
static char *_1fd9ae76aa94069afd97a9e448ab3fazQ1BKF2R8skFTWGt[] = {
/* columns rows colors chars-per-pixel */
"64 64 72 1 ",
"  c None",
". c #070007",
"X c #1F0206",
"o c #120613",
"O c #1D131E",
"+ c #1F181F",
"@ c #221814",
"# c #311210",
"$ c #231B24",
"% c #281820",
"& c #3D2923",
"* c #2E2533",
"= c #352A35",
"- c #332C35",
"; c #352D36",
": c #352E36",
"> c #31313E",
", c #3B343B",
"< c #400B0B",
"1 c #45090F",
"2 c #411E05",
"3 c #641318",
"4 c #4B2B13",
"5 c #57352F",
"6 c #75502D",
"7 c #293D4B",
"8 c #453E47",
"9 c #463E47",
"0 c #4A444B",
"q c #4D464D",
"w c #584C46",
"e c #4A5057",
"r c #595050",
"t c #585058",
"y c #5C575D",
"u c #665D66",
"i c #6C6262",
"p c #6D6262",
"a c #686169",
"s c #706970",
"d c #756E76",
"f c #726B7E",
"g c #7B7575",
"h c #7E767E",
"j c #7F797F",
"k c #821616",
"l c #831E20",
"z c #9E3E37",
"x c #A12929",
"c c #9A6F37",
"v c #83534E",
"b c #94605A",
"n c #87766D",
"m c #877B74",
"M c #877B75",
"N c #AA8550",
"B c #D28560",
"V c #EAA377",
"C c #5187B3",
"Z c #50D4EC",
"A c #8F8484",
"S c #8D8789",
"D c #8C868C",
"F c #9C9191",
"G c #A99D97",
"H c #B6AAA4",
"J c #B0A9AA",
"K c #BEB6B8",
"L c #A8C4B1",
"P c #FDD5B7",
"I c #FBECE6",
"U c #F2F8F9",
/* pixels */
"                                                                ",
"                                                                ",
"                                                                ",
"                                                                ",
"                                  X                             ",
"                             XXXXXlX                            ",
"                        XXXXX1311lx1X                           ",
"                     XXX133lll3llxl3XX                          ",
"                   X1111X133lxxxxlxl31X                         ",
"                   X1111X133lxxxxlxl31X                         ",
"                    X3113l1lxxlxxxxxl3XX                        ",
"                   X1X33x13xxl1xxxxxxxlXXX                      ",
"                  X133xx33xxlxxxx3x3lxx311X                     ",
"                  1X3x113xxlxxx11Xxl13xx331XX                   ",
"                  X3l133l311x31331xl31xx11XX                    ",
"                  X113ll1lllx1xll3xX1X1xXXX                     ",
"                   Xl3ll3lxl1lx331XPXPX3llX                     ",
"                   XlxllX3x13xl11XPPXPPX11X                     ",
"                   XlxllX3x13xl11XPPXPPX11X                     ",
"                   XlxxxX1xl3x3XXPPPPPPXXX                      ",
"                   X3x33XXl1Xl1XXPPPPPPPXX                      ",
"                    1l11XP1XX3XPPIIPPPPPXX                      ",
"                    X3XXXPXV1XVBBzzVPPPV%%                      ",
"                    X1XXBPPPXPVZZZ%%PPP%                        ",
"                     X%%zBPVVPPUUU%CPPP%                        ",
"                        %zzVVVPPPU77PPP%                        ",
"                        .%BVPPPPPPPPPPV%                        ",
"                        .%BVPPPPPPPPPPV%                        ",
"                      ####zBVPPPPPPPPB%                         ",
"                     .,,M-#zBVPPPPPVz%%                         ",
"                    .0AAhF0#zzzzzzzz44#                         ",
"                    .:HHdKt#########6c4#                        ",
"                   .,ADDFsA#c6666666cc6#                        ",
"                   .-JttGaJ#cc66666ccc6#                        ",
"                   .AjAAspy#cccccccccc6#                        ",
"                   .JtGG9g$#c6cccccccc6#                        ",
"                   .JtGG9g$#c6cccccccc6#                        ",
"                   .sAjjr.#c66NccccccN6#                        ",
"                   .aJuuw.#466cNNNNNNN4#                        ",
"                   .phFF$.#4466ccNNNc64#                        ",
"                   .gtnnoo##444666666e#B%%                      ",
"                   .=oooBB%>eeeeeLLLe>#B%%                      ",
"                   ..PPPPPV%>>>>>L*L>O#B%%                      ",
"                    %BIIPPz%OOOOOfffOO#z%%                      ",
"                    %BIIPPz%OOOOOfffOO#z%%                      ",
"                    %BPPPPz%222222#224#%                        ",
"                     %BBPPP%446666#664#                         ",
"                      %%%%%#464########                         ",
"                        #########qpyp,.                         ",
"                        .w:GtG:MM8S$..                          ",
"                        %%rjS0i.....k<                          ",
"                        %&%%%%.<1@%%%<                          ",
"                        %&55&< <<555&<                          ",
"                        %&55&< <<555&<                          ",
"                      %%&555%% %%55v5@%%                        ",
"                      %%@55@@%%%%55vv555%%                      ",
"                      %%55vv5&%%%&5vvbbv%%                      ",
"                      %%@@vvvvv@@%%%%%%%%%                      ",
"                        %@@5bbb55%                              ",
"                         %%%%%%%%                               ",
"                                                                ",
"                                                                ",
"                                                                ",
"                                                                "
};
