/* XPM */
static char *a9f8545c7409401ebe391e3c18cbb138ODyvkkRXoCMPB0ul[] = {
/* columns rows colors chars-per-pixel */
"64 64 72 1 ",
"  c None",
". c #070007",
"X c #1F0206",
"o c #120613",
"O c #1D131E",
"+ c #1F181F",
"@ c #221814",
"# c #311210",
"$ c #231B24",
"% c #281820",
"& c #3D2923",
"* c #2E2533",
"= c #352A35",
"- c #332C35",
"; c #352D36",
": c #352E36",
"> c #31313E",
", c #3B343B",
"< c #400B0B",
"1 c #45090F",
"2 c #411E05",
"3 c #641318",
"4 c #4B2B13",
"5 c #57352F",
"6 c #75502D",
"7 c #293D4B",
"8 c #453E47",
"9 c #463E47",
"0 c #4A444B",
"q c #4D464D",
"w c #584C46",
"e c #4A5057",
"r c #595050",
"t c #585058",
"y c #5C575D",
"u c #665D66",
"i c #6C6262",
"p c #6D6262",
"a c #686169",
"s c #706970",
"d c #756E76",
"f c #726B7E",
"g c #7B7575",
"h c #7E767E",
"j c #7F797F",
"k c #821616",
"l c #831E20",
"z c #9E3E37",
"x c #A12929",
"c c #9A6F37",
"v c #83534E",
"b c #94605A",
"n c #87766D",
"m c #877B74",
"M c #877B75",
"N c #AA8550",
"B c #D28560",
"V c #EAA377",
"C c #5187B3",
"Z c #50D4EC",
"A c #8F8484",
"S c #8D8789",
"D c #8C868C",
"F c #9C9191",
"G c #A99D97",
"H c #B6AAA4",
"J c #B0A9AA",
"K c #BEB6B8",
"L c #A8C4B1",
"P c #FDD5B7",
"I c #FBECE6",
"U c #F2F8F9",
/* pixels */
"                                                                ",
"                                                                ",
"                                                                ",
"                                                                ",
"                            X                                   ",
"                           XlXXXXX                              ",
"                          X1xl1331XXXXX                         ",
"                         XX3lxl33lll331XXX                      ",
"                        X13lxlxxxxl331X1111X                    ",
"                        X13lxlxxxxl331X1111X                    ",
"                      XXX3lxxxxllxxl1l3133X                     ",
"                     XXXlxxxxxx11lxx31x3XX1X                    ",
"                    X133xxl3x3xxxxlxx33x3331X                   ",
"                  XX13xxx31lxX1xxxxlxx31xx3X1                   ",
"                   XX1xxx13lx13113x113l311l3X                   ",
"                    XXxx1X1Xx3lxx1xlll1l3311X                   ",
"                    Xl33XPXPX13xxl1lxl3l33lX                    ",
"                    X1XXPPXPPX1llx31x3XlxxlX                    ",
"                    X1XXPPXPPX1llx31x3XlxxlX                    ",
"                     XXXPPPPPPX33x3lx1XxxxlX                    ",
"                     XPPPPPPPPX11lX1lXX3xx3X                    ",
"                     XPPPPPPIIPXX3XX1PX1ll1                     ",
"                     %VVPPPVzzBVVX1VXPXX33X                     ",
"                      %%PPP%%ZZVVPXPPPBX11X                     ",
"                      %%PPPC%UUPPPVVPBz%XX                      ",
"                      %%PPP77UPPPVVVzz%                         ",
"                      %%VPPPPPPPPPPVB%.                         ",
"                      %%VPPPPPPPPPPVB%.                         ",
"                        %BPPPPPPPPVBz###                        ",
"                        %%zVPPPPPVBz#-M,..                      ",
"                        #44zzzzzzzz#0FhA00.                     ",
"                      ##4c6#########tKdH::.                     ",
"                      ##6cc6666666c#AsFDAA,.                    ",
"                      ##6ccc66666cc#JaGtJJ-.                    ",
"                      ##6cccccccccc#ypsAjjA.                    ",
"                      ##6cccccccc6c#$g9GttJ.                    ",
"                      ##6cccccccc6c#$g9GttJ.                    ",
"                      ##6NcccccNN66c#.rjAAs.                    ",
"                      ##4NNNNNNcc664#.wuJJa.                    ",
"                      ##46cNNNc66644#.+Fjjp.                    ",
"                     %BB#e666664444##oonttg.                    ",
"                     %BB#>eLLLeeeee>%BBooo=.                    ",
"                     %BB#O>L*L>>>>>%VPPPPP..                    ",
"                     %zz#OOfffOOOOO%zPPIBB%                     ",
"                     %zz#OOfffOOOOO%zPPIBB%                     ",
"                      %%#422#222222%zPPPBB%                     ",
"                        #466#666644%PPPB%%                      ",
"                        #######4464#%%%%                        ",
"                        .,pyiq#########                         ",
"                         ..$S9M::GtG:w.                         ",
"                         <k....pp0Ajr%%                         ",
"                         <%%%%<..%%%%&%                         ",
"                         <&555%  %&55&%                         ",
"                         <&555%  %&55&%                         ",
"                      %%%@5v55%  %&555&%                        ",
"                     %5555vv55%%%&@@55@%                        ",
"                     %bbbvvv5&%&&&5vv55%                        ",
"                     %%%%%%%%%@vvvvvv@@%                        ",
"                             %5bbbb5@@%                         ",
"                              %%%%%%%%                          ",
"                                                                ",
"                                                                ",
"                                                                ",
"                                                                "
};
