/* XPM */
static char *_686ca0f0bd1488c85607f7c19d1fee32TKW6S5vUjkImGZQ[] = {
/* columns rows colors chars-per-pixel */
"64 64 71 1 ",
"  c None",
". c #070007",
"X c #1F0206",
"o c #171018",
"O c #1D131E",
"+ c #221814",
"@ c #311210",
"# c #231B24",
"$ c #281820",
"% c #3D2923",
"& c #2E2533",
"* c #332C35",
"= c #352D36",
"- c #352E36",
"; c #31313E",
": c #3B343B",
"> c #400B0B",
", c #45090F",
"< c #411E05",
"1 c #641318",
"2 c #4B2B13",
"3 c #57352F",
"4 c #75502D",
"5 c #293D4B",
"6 c #463E47",
"7 c #4A444B",
"8 c #4F464F",
"9 c #584C46",
"0 c #4A5057",
"q c #595050",
"w c #585058",
"e c #5C565D",
"r c #5C575D",
"t c #665D66",
"y c #6C6262",
"u c #6D6262",
"i c #686169",
"p c #756962",
"a c #706970",
"s c #756E76",
"d c #726B7E",
"f c #7B7575",
"g c #7E767E",
"h c #7F797F",
"j c #821616",
"k c #9A1A1A",
"l c #831E20",
"z c #9E3E37",
"x c #A12929",
"c c #9A6F37",
"v c #83534E",
"b c #94605A",
"n c #877B75",
"m c #AA8550",
"M c #D28560",
"N c #EAA377",
"B c #5187B3",
"V c #50D4EC",
"C c #8F8484",
"Z c #8D8787",
"A c #8D8789",
"S c #8C868C",
"D c #9C9191",
"F c #A99D97",
"G c #B6AAA4",
"H c #B0A9AA",
"J c #BEB6B8",
"K c #A8C4B1",
"L c #FDD5B7",
"P c #FBECE6",
"I c #F2F8F9",
/* pixels */
"                                                                ",
"                                                                ",
"                                                                ",
"                                                                ",
"                                     X                          ",
"                          XXX        ,X                         ",
"                         X,1,,XX   XX1X                         ",
"                          X111,,XXX,,1lXX                       ",
"                       XXXX,l11,,X,1l11llX                      ",
"                     XX,,11l1l111,,ll1lll1X,,                   ",
"                    X,1llxxxlxl1l1,1lll11,1l,                   ",
"                     X,,,,,11x1lxl1xlxlllxx1X                   ",
"                     X,,,,,11x1lxl1xlxlllxx1X                   ",
"                      X,,1lxxxlxxxlxxlxxxxlX                    ",
"                     X111lxxxxlxxx,lxx1xxx1X                    ",
"                    X,1llxxx1l1xxl,1xx1xxxlX                    ",
"                   X,1Xxxxl1l1,xxlX,lxl,,lx1X                   ",
"                   X,Xxll11l1X,lx1XX1lxXX,llX                   ",
"                    Xl1,,1,1XLX1lXLLX1xllX,l,                   ",
"                    X1,XX,1XLLLX1XLLLX1llXX1lX                  ",
"                   X1XXXX1XLLLLX,LLLLLX11X$X1,                  ",
"                  X,XzX,,XLLLLLLXLLLLLNXXXz$,1                  ",
"                  XX$X,XXNLPPLLLLLLPPNNNNXL$X,                  ",
"                    $LXNNNMzzNLLLLNzzMNMMNL$ X                  ",
"                    $LLMMNV$$VNLLNV$$VNMMLL$                    ",
"                     $LMMNI$BILLLLIB$INMML$                     ",
"                      $$$NL55ILLLLI55LN$$$                      ",
"                    ..@$$MLLLLLLLLLLLLM$$@..                    ",
"                    ..@$$MLLLLLLLLLLLLM$$@..                    ",
"                   .p-@22zNLLLLLLLLLLNz22@n#.                   ",
"                  .qgD@44@zzNLLLLLLNzz@44@gD7.                  ",
"                  .AsG@44c@@zzzzzzzz@@c44@sG-.                  ",
"                 .qaDS@44cc4@@@@@@@@4cc44@DSC:.                 ",
"                 .fiFw@44ccc44444444ccc44@FwH*.                 ",
"                 .7u8q@44cccccccccccccc44@:urq.                 ",
"                .p-A-9@44cccccccccccccc44@op-A*.                ",
"                .ru8u.@444cmccccccccmc444@.ru8u.                ",
"                .tH6..@2244cmccccccmc4422@..AiG.                ",
"                .Dhu. @<<224cmmmmmmc422<<@ .rCg.                ",
"                .Jsn. .OO00224444442200OO. .AsG.                ",
"                .....$.OO;;;00KKKK00;;;OO.$.....                ",
"                $NLLN$$OOO;;;;K&&K;;;OOOO$$NLLN$                ",
"                $NPLLL$@@@OOOOddddOOO@@@@$LLLPN$                ",
"                $MLLzL$@@2<<<<<@<<<<<<2@@$LzLLM$                ",
"                $MLLzL$@@2<<<<<@<<<<<<2@@$LzLLM$                ",
"                $zLLzz$@@224444@@444422@@$zzLLz$                ",
"                 $MLNN$@@@22444@@@4422@@@$NNLM$                 ",
"                  $$$$.qq8@@@@@@@@@@@@C77.$$$$                  ",
"                      >..-FwA-A6n;C6nwf..>                      ",
"                      >jj..7ieu8ury:q..jj>                      ",
"                      >jjkk..........kkjj>                      ",
"                      $$$$$+$      $$$$$$$                      ",
"                      $%233@$      $+33%%$                      ",
"                     $+33333%$    $%33333+$                     ",
"                     $3vuvv3+$    $+3vvvv3$                     ",
"                    $+vvvvvv3$    $3vvvvvv+$                    ",
"                    $vvvvvvv3$    $3vvvvvvv$                    ",
"                    $3vbbbbv$      $vbbbbv3$                    ",
"                     $$$$$$$        $$$$$$$                     ",
"                                                                ",
"                                                                ",
"                                                                ",
"                                                                ",
"                                                                "
};
