/* XPM */
static char *_98e9bbbf1aa41a3bb9b5d265506cf1aNxWrjjl0HFpQIZHV[] = {
/* columns rows colors chars-per-pixel */
"64 64 66 1 ",
"  c None",
". c #070007",
"X c #1F0206",
"o c #171018",
"O c #1D131E",
"+ c #241213",
"@ c #221814",
"# c #311210",
"$ c #231B24",
"% c #281820",
"& c #3D2923",
"* c #332C35",
"= c #352D36",
"- c #352E36",
"; c #31313E",
": c #3B343B",
"> c #400B0B",
", c #45090F",
"< c #411E05",
"1 c #641318",
"2 c #4B2B13",
"3 c #57352F",
"4 c #704325",
"5 c #75502D",
"6 c #453E47",
"7 c #463E47",
"8 c #4A444B",
"9 c #4D464D",
"0 c #4F464F",
"q c #584C46",
"w c #4D4A5D",
"e c #4A5057",
"r c #595050",
"t c #585058",
"y c #5C565D",
"u c #5C575D",
"i c #6C6262",
"p c #6D6262",
"a c #686169",
"s c #756962",
"d c #706970",
"f c #756E76",
"g c #7B7575",
"h c #7E767E",
"j c #7F797F",
"k c #831E20",
"l c #9E3E37",
"z c #A12929",
"x c #9A6F37",
"c c #83534E",
"v c #94605A",
"b c #877B74",
"n c #877B75",
"m c #AA8550",
"M c #D28560",
"N c #EAA377",
"B c #8F8484",
"V c #8D8787",
"C c #8D8789",
"Z c #8C868C",
"A c #9C9191",
"S c #A99D97",
"D c #B6AAA4",
"F c #B0A9AA",
"G c #FDD5B7",
"H c #FBECE6",
/* pixels */
"                                                                ",
"                                                                ",
"                                                                ",
"                                                                ",
"                            X,1XX                               ",
"                       XXX,1,1k111,XX                           ",
"                     XXXXXX,1kzkk1kk1,XX                        ",
"                     XXXXXX,1kzkk1kk1,XX                        ",
"                   XX,1k,,X1kzzkkkzzkk11X                       ",
"                    XX,1kkzk1zzkkzz1,X11,X                      ",
"                    X,kzzzzz1z1zzzk,kzkk1X                      ",
"                   X,kzk11kzzzzzzzz,1kzzk,X                     ",
"                 XX,kk1X11zkkzzkk1zk,,11k1,X                    ",
"                 ,,1k1X,zz11Xkzzz,1zkX,,k,11X                   ",
"                 ,,1k1X,zz11Xkzzz,1zkX,,k,Xk,XX                 ",
"                X11,XX,k,,XX1kzzz,X1k,XX,,Xk,XX                 ",
"                X,,X,,1,XX,1,z1zz1,X1k,,XX,X1XX                 ",
"                 XX,1X,X,,1X1k,zzk,1X1,,XX,X,XX                 ",
"                 XX1X,X,11X,k1XkkkX1,X11X,X,X                   ",
"                   XNX,,XXX,1,Xkk1X11,XX,,NX                    ",
"                   %GN,X,,,X,XX11,X,11XX,NG%                    ",
"                   %NG,X,,,XXXX,,X,XX,,,,GN%                    ",
"                   %NG,X,,,XXXX,,X,XX,,,,GN%                    ",
"                    %GXNXX,XX,XXX,,XXXXXMG%                     ",
"                     %lNNNX,X,X,,,,X,NNNl%                      ",
"                      %MNNXN,,X,,,X,,NMM%                       ",
"                   ....lMMNNNX,,,XNNNMll....                    ",
"                 ..s-#2#lllNNNNXXNNNll##2#n$.                   ",
"                .rrhA#55###NNNNNNNNN##222#hA8..                 ",
"                .rrhA#55###NNNNNNNNN##222#hA8..                 ",
"                .FFfD#x5555#########22225#fDt..                 ",
"               .rddBj#xxxxx52222222222555#BjB::.                ",
"               .g77St#xmmmxx5522222255555#StC**.                ",
"               .upp:t#5xmmmxx55555555x552#:rupp.                ",
"              .s-CC7q#5xxxmmxxxxxxxxx5552#on-CC*.               ",
"              .8B00r.#2555xxmmxxxxx55522<#.8p00r.               ",
"              .0B00r.#2555xxmmxxxxx55522<#.8p00r.               ",
"              .-F77. #<25555xxxxx5552222<# .Caan.               ",
"              .AZpp. #w<<<25555555222<<<w# .uBBd.               ",
"              .Ffss.%.;eee<<2222222<<eee;.%.Caan.               ",
"              .....N%.O;wweeeeeeeeeeew;;O.%N.....               ",
"              %NHGGGl.OO;;;;;;;;;;;;;;OOO#lGGHHN%               ",
"              %MGGGGN.##++O@OOOOOOOOOO++##NGGGGM%               ",
"              %MGGGGN.##++O@OOOOOOOOOO++##NGGGGM%               ",
"              %lGGGGG.#2<<<<<<<#<<<<<<22##GGGGGl%               ",
"               %MGGNl##22244444444444222##lNGMM%                ",
"                %%%%%###22255555555522####%%%%%                 ",
"                     .r#################8.                      ",
"                     .gaSS;B=C7nb-V6ntCC$.                      ",
"                     >.9ppupup0iiup8iuii.                       ",
"                     >.9ppupup0piui0iupi.                       ",
"                      %...V-C7n-*B6n6...>                       ",
"                     %&%@%%%%.....%%%%%%&%                      ",
"                    %&&@3333%     %333@@&&%                     ",
"                    %&&3ccc3%     %3cc33&&%                     ",
"                    %@@cvvc@%     %@cvcc@@%                     ",
"                    %@3cvvc@%     %@cvcc3@%                     ",
"                    %@3cvvc@%     %@cvcc3@%                     ",
"                     %&3cc@&%     %&@c33&%                      ",
"                      %%%%%%       %%%%%%                       ",
"                                                                ",
"                                                                ",
"                                                                ",
"                                                                "
};
