/* XPM */
static char *ae64b20a400145c1caeb9b458c114f20m8qLEYTeU5orxsRf[] = {
/* columns rows colors chars-per-pixel */
"64 64 36 1 ",
"  c #B5E699",
". c #B5E68C",
"X c #ADDE8B",
"o c #A5D683",
"O c #AFE58C",
"+ c #A7DD84",
"@ c #BBE686",
"# c #C3EE87",
"$ c #CBF68F",
"% c #424133",
"& c #B3A68F",
"* c #D6D3B1",
"= c #9FD583",
"- c #71905A",
"; c #63614C",
": c #5A804B",
"> c #8AC573",
", c #82755D",
"< c #9B927E",
"1 c #678B55",
"2 c #769664",
"3 c #302C22",
"4 c #6B8B55",
"5 c #628650",
"6 c #97CE7B",
"7 c #AFE592",
"8 c #72955F",
"9 c #72955B",
"0 c #A9E585",
"q c #BDEE8D",
"w c #2E532D",
"e c #69BB5F",
"r c #5EA75C",
"t c #4A8549",
"y c #3A6939",
"u c #7A9657",
/* pixels */
"  .XXXXXXXXXXXXXXXXXXXXXXXXXooXooooooooX O                    O ",
" .++XXXXXXXXXXXXXXXXXXXXXXXXoXXooooooooXO+  OO   O           O+O",
"O+++XXXXXXXXXXXXXXXXXXXXXXXXXXXooooooooO++OO+O  O+O  O   O   O++",
"++++oXXXoXXoXXXXXXXXXXXXXXXXXXXoo+ooooo+++O+++OO++O O+O O+O O+++",
"o++oooXooXooXoXXXXXXXXXXXXXXXXXooXXoooo++++++++++++O+++O++OOO+++",
"oo+oooooooooXooXXoXXXXXXXXXXXXXXoXXXoo+++++++++++++++++++++O++++",
"oooooooooooooooXooXXXXXXXXXXXXX@XXXXOX+OOXX+++OO+++++++++++++o++",
"oooooooooooooooooooXXoXXXX@XXX@#XX@XXX@@XX@+O@O@O++++++++++++oo+",
"oooooooooooooooooooXooXXX.#@X@#$@X$#X@#@X@#+@#O#@+O#+O+++++o+ooo",
"oooooooooooooooooooooooXX@$#@#$##@#$@#$#@#$##$@$#O#$O#++O+oo+ooo",
"oooooooooooooooooooooooo.@#$#########$%%%%%%%%%#$@$##$+O#ooooooo",
"oooooooooooooooooooooooX@##########%%%&&******&%%%###$O#$ooooooo",
"XooooooooXooooooooooooo.########@##%%%&&******&%%%#####$#+oooXoo",
"@XooXoooX@oooXooooooooo@#@##@##@X@#%%****&&&&&***%#######.ooX@oX",
"@@oX@XoX@@XoX@Xooooooo@@@X#@X@#@XX%&&*&&&*****&**&%%######oX@@X@",
"@@X@@@X@@@@X@@XXXooooo@@XX@XXX@XXX%&&*&&&*****&**&%%#######@@@@@",
"@@@@@@@@@@@@@.@X@+oXoo@XXX@XXXXXXX%***&&&&&*******%%@#@####@..@@",
"@.@@@@@@@@.@...@@@XXXoXXXXXXXXXXXX%&&****&&&&&***&%%@.X@#@@...@@",
"...@@...@......@.@XXXXXXXXXXXXXXXX%&&****&&&&&***&%%====@.@....@",
".................XXXXXXXXXXXXXXXXX%%%************%%%====.X.....@",
"................XXXXXXXXXXXXXXXX--%;;;&&******&;;;%%:>XX.XX.....",
"................XXXXXXXXXXXXXXXX--%;;;&&******&;;;%%:>XXXoXX....",
"............#..#..XXXXXXXXXXXXX-%%,;;<;;;;;;;;;;;;,,%1-oXooX....",
".....#..#..#$.#$.#.XX.XXXXXX XX233;,,<,,;,,,;;;,,;;;314ooooXX#..",
".#..#$#.$#.$##$#.$#X.#XXX X  X 233;,,<,,;,,,;;;,,;;;344o====X$#.",
"#$#.$####$########$.#$.X  X    233;,,,,,;,,;;;;,,,;;344X====#$#.",
"$###################$#.        2223,,,,,%;;;%%,,,,334456>>#X$$##",
"######################.#7  77  2223,,,,,%;;;%%,,,,334456>>##$###",
"#######################$#7 77   22333,;;333333;,,33356>>==##$###",
"###########@###@@##@####$777777  72883332411443331-466>>==####.#",
"@####@@###@@@#@@@@#@@####@77777 778883338-44-433349->>==#.###.O#",
"@@##@+@@#+@@@+@@@+@@+@##@+7077  7777    OXoXOo==OoOO>>==.O.#.OO#",
"+@@@+++@+++@+++@++@+++@@++777777777 7777OOoOOXOOOXOOXOO.OOO.OOO.",
"++@++++++++++++@++++++@+++7777.77.7777777OXOOOOOOOOOOOOOOOOOOOOO",
"++@++++++++++++++++++++++++777q.7q.7.7.777OOOOOOOOOOOOOOOOOOOOOO",
"O++++++++++++++++++++++++++7.7qq7qq7q.77.77OOOOOOOOOOOOOOOOOOOOO",
"OO+++X++X+++X+++X++++www+O+wwwqq.qq.qq7.q.7O.7OOOOOOOOOOOOOOOOOO",
"OO++Xo+XoX+XoX++oX++weerwqwreewqqqqqqq.qqq7.q7.OOOOOOOOOOOOOOOOO",
"XOO+ooXXoo+Xoo+Xoo+wertrtwtrtrewq@qqqqq#qq.qq7q.O7.OOOOOOOOOOOOO",
"oXOXooXoooXoooXoooXweeettwtteeew@@@qqqq@qqqqq.qq7.qOOOOOOOOOOOOO",
"ooXoooooooooooooooXowwertwtreww@@@@@#q@@qqq@qqqq.qq.OOOOOOOOOOOX",
"oooooooooooooooooooooowwwwwww@@@@@@@#@@@@q@@qqqqqqqq.OOOOOOOOOXo",
"oooooooooooooooooooooooowyyw@@@@@@@@@@@@@@@@@qq@qqqq.OO.OOO@OOXo",
"oooooooooooooooooooo==11wyywuuX@@X@@@@@@@@@@@q@@q@qq@OO@.O@#.XXX",
"XooXooXooooooooooooo111wyttywu--@XX@@X@@@@@@@@@@@@@@#@O#@.#$@XX@",
"@oX@>>==Xo==>>oooo=1::44wwwwu----XX@XX@@@X@@@@@@@#@#$#@$#@$##X@#",
"$X@#>>==@X==>>oooo==::4-44------XXXXXXX@XX@@X@@@@#######$####@#$",
"#@#$@#>>==Xo>>oo==>>==---4----XXXXXXXXXXXX@XX@@@@##############$",
"##$##$>>==@o>>Xo==>>==XXXXXXXXXXXXXXXXXXXXXXX@@X################",
"######==>>@X==66>>==XXXX====XXXXXXXXXXXXXXXXX@XX##@#############",
"######==>>@.==66>>==XX.X====XXXXXXXXXXXXXXXXXXXX#@X#############",
"#####@##==66.@>>==@.X.66>>XXXXXXXXXXXXXXXXXXXXXX@XX@############",
"##@##@@#==66@@>>==@@.@66>>XXXXXXXXXXXXXXXXXXXXXXXXXX#@########@#",
"#@@#@@@#@@==@@66==.@66>>==XXXXXXXXXXXXXXoXXXXoXXXXXXX@####@###@@",
"@@@@@@@@@@==@.66==..66>>==.XXXXXXXXXoXXXooXXooXXXoXXXo###@@@#@@@",
"@@@@@.@@@.@@..==....>>==@@@XXXXXXXXooXXoooXooooXoooXoo@##@@@@@@@",
".@@@..@@..@...==....>>==@.O@XoXXoXXoooXooooooooooooooo@#@@@@@@@@",
"..@.....................@.oOooXooXoooooooooooooooooXoX7@@@7@@@@.",
"................O...O...Ooo.ooooooooooooooooooooXoo7X7 7@7 7@@7.",
"7...........O.OOOOOOXO..oooooooooooooooooooXoooX oX 7   7   7. .",
" ..........OO.OOXOOXXOOXooooooooooooooooooX XoX  X          7  7",
" 7..OO..O..OXOOOXXOXXXOXXoooooooooooooooXo   X                 7",
"  ..XOOOXOOXXXOXXXXXXXXXXooXoooooooooooo X                      ",
"  .OXXOXXXOXXXXXXXXXXXXXXoXXoooooooooooX                        "
};
