/* XPM */
static char *_ecd6bc3406041039cff6d7a5041ce7fX9FKeuVFW9pFBANI[] = {
/* columns rows colors chars-per-pixel */
"64 64 159 2 ",
"   c #000000",
".  c #0D0303",
"X  c #150505",
"o  c #1A0706",
"O  c #2B0C0A",
"+  c #240907",
"@  c #330E0C",
"#  c #390F0D",
"$  c #3D100E",
"%  c #3B2E1B",
"&  c #3E321E",
"*  c #3E3323",
"=  c #3C342A",
"-  c #3A3530",
";  c #5B0E07",
":  c #510F0A",
">  c #45120F",
",  c #55130C",
"<  c #5C130B",
"1  c #591307",
"2  c #461310",
"3  c #4C1411",
"4  c #551413",
"5  c #5D1815",
"6  c #630F09",
"7  c #661109",
"8  c #69110A",
"9  c #75190F",
"0  c #681110",
"q  c #631A16",
"w  c #6C1D19",
"e  c #751912",
"r  c #781912",
"t  c #751F1A",
"y  c #781B16",
"u  c #4C2E1F",
"i  c #502C1F",
"p  c #42331E",
"a  c #49301B",
"s  c #7E221C",
"d  c #452F25",
"f  c #4A2E24",
"g  c #532E20",
"h  c #413323",
"j  c #4B3121",
"k  c #41332B",
"l  c #682320",
"z  c #7F2321",
"x  c #5E543D",
"c  c #645536",
"v  c #685436",
"b  c #65543A",
"n  c #6A523A",
"m  c #615643",
"M  c #6F6F6F",
"N  c #716F6C",
"B  c #6F716F",
"V  c #71706E",
"C  c #6E7171",
"Z  c #707070",
"A  c #81221D",
"S  c #8F2E29",
"D  c #902F2A",
"F  c #8F312C",
"G  c #91312C",
"H  c #953530",
"J  c #8C7C5E",
"K  c #678953",
"L  c #688A54",
"P  c #708E59",
"I  c #6D9258",
"U  c #75935E",
"Y  c #79945E",
"T  c #729C5D",
"R  c #779760",
"E  c #7E9963",
"W  c #7CA365",
"Q  c #978455",
"!  c #998355",
"~  c #94825D",
"^  c #99845F",
"/  c #859E62",
"(  c #889F60",
")  c #809E68",
"_  c #83A267",
"`  c #89A464",
"'  c #87A46A",
"]  c #89AB6C",
"[  c #89A869",
"{  c #9AB76C",
"}  c #9CBB6F",
"|  c #8FB171",
" . c #8CB872",
".. c #93BB75",
"X. c #9CBD72",
"o. c #98BF79",
"O. c #94B976",
"+. c #A0BD70",
"@. c #9BC57C",
"#. c #9DCA7E",
"$. c #9BC276",
"%. c #A0CE7F",
"&. c #A4C675",
"*. c #AED37C",
"=. c #B5DB7D",
"-. c #B8DF7F",
";. c #B7BDBC",
":. c #BCBCBC",
">. c #BCB7BA",
",. c #C6AFAD",
"<. c #C8B6AE",
"1. c #CBB6B3",
"2. c #C1BABA",
"3. c #C8B8B1",
"4. c #D3B4B5",
"5. c #9FD583",
"6. c #A1CD81",
"7. c #A5D683",
"8. c #A5D683",
"9. c #A8D787",
"0. c #A7DD84",
"q. c #A7DD84",
"w. c #ADDE8B",
"e. c #ADDE8B",
"r. c #AFDA82",
"t. c #B6DF82",
"y. c #AFE58C",
"u. c #AFE58C",
"i. c #BBE686",
"p. c #BBE686",
"a. c #B5E68C",
"s. c #B5E68C",
"d. c #BBE584",
"f. c #AFE592",
"g. c #B5E699",
"h. c #B5E699",
"j. c #B6E197",
"k. c #B9C0BF",
"l. c #C3EE87",
"z. c #C3EE87",
"x. c #C4EE8A",
"c. c #CBF68F",
"v. c #CBF68F",
"b. c #C9F093",
"n. c #BDBBC0",
"m. c #E7E7E7",
"M. c #E5E7E4",
"N. c #E4E3E6",
"B. c #E6E9E7",
"V. c #E8E8E6",
"C. c #E7E7E9",
"Z. c #E9E6E8",
"A. c #EDE5E9",
"S. c #E7E9E8",
"D. c #E1EDE8",
"F. c gray91",
"G. c #E8E8E9",
"H. c #EAEAEA",
"J. c #EDEDED",
/* pixels */
"g.g.a.w.w.w.w.w.w.w.w.w.w.w.w.w.w.w.w.w.w.w.w.w.w.w.w.w.8.8.w.8.8.8.8.8.8.8.8.w.g.y.g.g.g.g.g.g.g.g.g.g.g.g.g.g.g.g.g.g.g.g.y.g.",
"g.a.0.0.w.w.w.w.w.w.w.w.w.w.w.w.w.w.w.w.w.w.w.w.w.w.w.w.8.w.w.8.8.8.8.8.8.8.8.w.y.0.g.g.y.y.g.g.g.y.g.g.g.g.g.g.g.g.g.g.g.y.0.y.",
"y.0.0.0.w.w.w.w.w.w.w.w.w.w.w.w.w.w.w.w.w.w.w.w.w.w.w.w.w.w.w.8.8.8.8.8.8.8.8.y.0.0.y.y.0.y.g.g.y.0.y.g.g.y.g.g.g.y.g.g.g.y.0.0.",
"0.0.0.0.7.w.w.w.7.w.w.7.w.w.w.w.w.w.w.w.w.w.w.w.w.w.w.w.w.w.w.8.8.0.8.8.8.8.8.0.0.0.y.0.0.0.y.y.0.0.y.g.y.0.y.g.y.0.y.g.y.0.0.0.",
"7.0.0.7.7.7.w.7.7.w.7.7.w.7.w.w.w.w.w.w.e.e.e.e.w.w.w.w.w.w.w.8.8.w.w.M C M M M C V M M Z Z Z 0.0.0.0.y.0.0.0.y.0.0.y.y.y.0.0.0.",
"7.7.0.7.7.7.7.7.7.7.7.7.w.7.7.w.w.8.w.w.e.e.e.e.w.w.w.w.w.w.w.w.8.w.w.M Z Z Z Z Z Z Z Z Z Z V 0.0.0.0.0.0.0.0.0.0.0.0.y.0.0.0.0.",
"7.7.7.7.7.7.7.7.7.7.7.7.7.7.7.w.8.8.w.w.e.w.e.e.w.w.w.w.w.w.w.i.w.w.w.Z Z Z Z M Z Z Z Z Z Z M y.0.0.0.0.0.0.0.0.0.0.0.0.0.7.0.0.",
"7.7.7.7.7.7.7.7.7.7.7.7.7.7.7.7.8.8.8.w.w.8.e.e.w.w.a.w.w.w.i.z.w.w.i.Z Z Z Z Z Z Z Z Z Z Z M i.y.0.0.0.0.0.0.0.0.0.0.0.0.7.7.0.",
"7.7.7.7.7.7.7.7.7.7.7.7.7.7.7.7.8.8.8.e.8.8.e.e.w.s.z.4 0 6 7 8 7 7 7 :.:.:.:.Z.Z.G.S.Z.G.G.V.Z M Z Z z.0.y.0.0.0.0.0.7.0.7.7.7.",
"7.7.7.7.7.7.7.7.7.7.7.7.7.7.7.7.8.8.8.8.7.7.8.e.w.i.b.4 8 8 7 7 7 8 7 :.:.:.:.Z.G.G.G.S.V.G.G.Z Z Z Z v.y.z.0.0.y.0.7.7.0.7.7.7.",
"7.7.7.7.7.7.7.7.7.7.7.7.7.7.7.7.8.8.8.8.7.7.7.8.s.i.z.4 7 7 7 7 7 7 7 2.:.:.:.H.Z.V.G.m.G.G.G.M Z Z C z.z.v.0.y.l.7.7.7.7.7.7.7.",
"7.7.7.7.7.7.7.7.7.7.7.7.7.7.7.7.8.8.8.8.7.9.7.u.i.l.z., 7 8 8 8 7 8 8 3.3.4.4.N.m.m.m.G.G.V.G.M Z Z Z z.z.v.s.l.c.7.7.7.7.7.7.7.",
"w.7.7.7.7.7.7.7.7.w.7.7.7.7.7.7.8.8.8.8.8 8 8 8 8 7 8 G F F F G G G F 8 7 8 6 :.:.:.:.G.G.H.J.G.G.G.G.Z Z Z l.v.l.0.7.7.7.w.7.7.",
"i.w.7.7.w.7.7.7.w.i.7.7.7.w.7.7.8.8.8.8.7 7 7 7 7 7 8 F F G F G G G F 7 7 8 8 :.:.:.:.Z.G.G.G.G.G.G.G.Z Z M l.l.l.a.7.7.w.i.7.w.",
"i.i.7.w.i.w.7.w.i.i.w.7.w.i.w.7.8.8.8.8.7 7 7 7 8 8 8 F S G G G G G G 8 8 7 0 ;.:.:.:.Z.G.S.G.V.B.G.G.M M M l.l.l.l.7.w.i.i.w.i.",
"i.i.w.i.i.i.w.i.i.i.i.w.i.i.w.w.e.8.8.8.8 8 7 8 8 8 7 H G G G G G G S 7 8 8 8 3.1.1.1.Z.S.Z.B.Z.Z.G.B.Z C M l.l.l.l.l.i.i.i.i.i.",
"i.i.i.i.i.i.i.i.i.i.i.i.7 7 7 7 7 7 7 7 A A A A A A A A A A A G G G G G G G G 7 7 7 , :.:.2.:.A.G.A.B.B.S.m.V N M Z l.i.a.a.i.i.",
"i.a.i.i.i.i.i.i.i.i.a.i.8 7 7 7 7 7 7 7 A A A A A A A A A A A F G G G G G G G 7 7 7 < :.>.:.;.B.D.G.Z.V.S.m.C M Z M i.a.a.a.i.i.",
"a.a.a.i.i.a.a.a.i.a.a.a.8 7 7 7 7 7 7 7 s s A A A A A A A s A S G G G F G G G 8 7 7 4 :.:.k.>.m.Z.Z.Z.G.Z.C.Z M Z Z a.a.a.a.a.i.",
"a.a.a.a.a.a.a.a.a.a.a.a.8 8 8 8 8 8 7 8 A s S A A A A A s   O S G G G F G G G 8 8 8 1 1.1.<.,.M.Z.m.B.G.G.C.Z M Z Z a.a.a.a.a.i.",
"a.a.a.a.a.a.a.a.0 8 8 7 s A A A A A A A S G G y s A @ 2       A A A A F G G G F G G F 8 6 8 4 ;.n.2.:.G.Z.m.Z M Z V w.a.a.a.a.a.",
"a.a.a.a.a.a.a.a.8 7 7 8 A A A A A A A A G G G A s $   s 4     A A A A S G G G G G G G 7 7 7 4 :.:.:.:.S.B.C.Z M M V w.w.a.a.a.a.",
"a.a.a.a.s.s.a.a.8 8 8 8 A A A A A A A A G G l   s A   A A     A A A A G G G G G G G G 8 6 8 4 :.:.:.n.G.V.Z.N N Z V 7.w.a.a.a.a.",
"a.a.a.a., < , , A s s s G G G G G G G G A $   O A A 3 A 5   . A 5 A A A A A A A A s s e 9 9 w 4 , , 3 M V M - = = k 7.w.w.l.a.a.",
"a.z.a.a.7 7 7 7 z A A A G G G G G G G G A     t A A A A .   5 A   A A A A A A A A A A r r 9 e 8 8 7 , Z V Z = * h * 5.5.w.c.l.a.",
"z.v.z.a.7 7 7 8 s A A A G F G G G G G G A     A A A A A     . A   O A A A A A A A A A r r r e 8 < 8 , B Z V = h h * 5.5.l.c.l.a.",
"v.z.z.z.7 7 7 7 A A A A G G G G S G G G >   o A A A w A       2 $ A A A A A A A A A A 9 e e 9 8 7 7 , V C V = h * * l.w.c.c.l.l.",
"z.z.z.z.7 6 7 7 A A A A G G G H A A A A .   q A A X   t 3     s A A A e e e e 8 8 8 8 8 8 8 8 8 7 7 1 m m m % & h * l.l.c.l.l.l.",
"z.z.z.z.7 7 7 7 A A A A G G G H A A A A     s X       . A w A A A A A r e e e 8 7 7 7 7 7 7 8 8 8 7 1 n v n h = * * l.l.c.l.l.l.",
"z.z.z.z.7 7 7 7 s A A A G G G G A A A A                 t s A A A A A e r r e 8 7 7 7 7 7 7 7 7 7 8 1 c v v & * h * l.l.l.l.a.l.",
"i.z.z.z.7 7 7 7 A A A A G G G G A A A t         4 q     X A A A A A A e r e e 7 7 8 8 7 7 7 7 7 7 7 1 b b m h * * * l.l.l.a.y.l.",
"i.i.z.z.8 8 7 8 7 7 7 8 s s A A A A A A   @ s A s s X + e e e 8 7 7 8 7 7 8 7 8 7 8 7 7 8 8 , * * * * b c c p * h * a.l.a.y.y.l.",
"0.i.i.i.7 8 8 7 7 7 7 8 A A A A A A A A A A A A A A A 9 r r e 8 7 7 7 7 7 7 7 8 8 6 7 7 7 8 , * * * & b b b & * * * y.a.y.y.y.a.",
"0.0.i.0.< 8 8 8 7 7 8 8 A A A A A A A A A A A A A A A 9 r r r 8 7 7 7 8 7 7 7 7 8 6 6 8 8 8 , * * * * c b b & * h * 8.y.y.y.y.y.",
"0.0.i.0.7 7 7 1 8 7 7 7 A A s A A A A A A A A t S y S 8 9 e 9 8 7 7 7 7 7 7 8 1 6 7 7 7 6 7 : d = * * b b b h k * * @.u.y.y.y.y.",
"y.0.0.0.* * * j 1 7 7 7 7 8 8 8 A A A A r r 9 8 6 7 7 7 8 8 6 6 8 7 7 8 8 7 7 u * d * h p h k / / E / h * p h * h * O.e.y.y.y.y.",
"y.y.0.0.h * * * 8 7 8 8 7 7 7 8 A A A A 9 r e 7 7 7 6 8 7 6 8 8 7 8 8 8 8 7 7 * * * * * * * = / E W E = * * h * & * O.0.y.y.y.y.",
"y.y.0.0.= * h * 8 7 8 7 7 7 7 8 A A A A r r e 8 7 7 8 6 6 7 7 7 7 7 7 < 7 7 7 & * * h * * * = / E / / * * h * * * = $.e.y.y.y.y.",
"w.y.y.0.= * * p 7 8 7 7 8 7 7 8 A t A A 9 9 9 8 6 8 6 8 7 7 8 6 7 8 8 8 8 7 q * = * = * * = - ) _ E ' = * * * = = * 8.u.y.y.y.y.",
"7.w.y.u.v v v x h * p i 6 8 7 8 8 8 8 8 8 8 8 8 6 6 8 6 7 7 7 p * * * * * & p ( ` ` ` ` ` / ` ` W / ' / _ E W / ' $.u.y.y.y.y.y.",
"7.7.w.7.v c c b * * h f 7 8 7 7 8 8 8 7 6 7 6 7 7 7 7 7 7 6 7 * * * h j * d * / ` ` ` / ` ` ` ` / ` ` _ _ E W ] #.u.y.y.y.y.y.e.",
"7.7.7.7.n b b n * * * u 7 7 8 7 8 7 7 7 8 8 8 8 8 7 7 8 8 8 7 & * * * * * p * / ( ` / ( ` ' ` ` ` ` ` ` _ _ O.8.u.u.y.y.y.y.e.8.",
"7.7.7.7.x b x x * = = f < 1 , < 7 7 7 7 8 7 8 1 , , , 1 : 1 , = k = = - = = = / ( / ( ( ( ( ( ( ` ` ` [ X.%.y.s.u.y.y.i.y.y.e.8.",
"7.7.7.#.] Y U U Y Y Y Y * = = i 6 8 8 7 8 8 7 i * * * * h d = ( ` E ( ( ( / ( ( ( ( ( / ( ` ( ( ` ` $.r.i.y.y.i.s.y.i.l.s.e.e.e.",
"w.7.7.%._ U E Y Y Y Y U * h = u 7 7 7 7 7 8 7 u = * * * * * * E ( E E ( ( E ( ( ( / ( ( ( ( ( ` } *.i.i.z.i.y.z.i.s.l.c.i.e.e.i.",
"i.7.w.*.I K U U E Y U U * * * u 8 7 7 7 6 7 8 u * * h h d * * E E E E ( E E / / ( Y ( ( ( ( } *.i.l.i.l.v.z.i.v.z.i.c.l.l.e.i.l.",
"v.w.i.=.I L U U ( E U U p p & a 1 , , ; , , , h = = = * = * * E E E E E E E E / / E ( ` | *.t.i.i.l.l.l.z.z.z.z.v.z.l.l.l.i.l.c.",
"l.i.l.x.} ` K K U U E Y ! ! ! ~ * * * = R U E / E U R E E E ) E E E E E E E E E E ) { o.9.i.p.i.i.l.l.l.z.z.z.z.z.z.l.l.l.l.l.c.",
"l.l.v.l.=.+.L K U U ( Y Q ! ! ~ * * & = U U E E E E E E E E E E E E E E E E / ) | @.9.w.w.i.i.w.l.l.l.l.l.l.l.l.l.l.l.l.l.l.l.l.",
"l.l.l.l.l.=._ U K K ( Y Q ! Q ~ * * d = E E E E U U U U E E E E E E E / ) ' O.%.w.w.w.w.w.i.w.w.l.l.i.l.l.l.l.l.l.l.l.l.l.l.l.l.",
"l.l.l.l.l.d. .Y K K ( _ ~ ~ ^ J * * * = E E E E U U U U E E E E E E ) ' O.8.w.w.w.w.w.w.w.w.w.w.l.i.u.l.l.l.l.l.l.l.l.l.l.l.l.l.",
"l.l.l.l.l.d.-.{ U U P P v b v b * * p = E / P P K K E E E E E ) / | 6.9.w.w.w.w.w.w.w.w.w.w.w.w.i.w.w.i.l.l.l.l.l.l.l.l.l.l.l.l.",
"l.l.i.l.l.i.d.*.R U P P b b v m h * * * / / P P K K E E E E _ O.6.e.e.e.w.w.w.w.w.w.w.w.w.w.w.w.w.w.w.j.b.i.l.l.l.l.l.l.l.l.i.l.",
"l.i.i.l.i.i.i.d.} ` U U c c v m * * * = P P K K U U E / [ o.6.9.w.w.e.e.w.w.w.w.9.w.w.w.w.7.w.w.w.w.w.w.w.i.l.l.l.l.i.l.l.l.i.i.",
"i.i.i.i.i.i.i.i.t.&.W U & p h h * * * = P P K K U E ..#.9.e.w.w.e.e.e.e.7.w.w.w.7.7.w.w.7.7.w.w.w.7.w.w.w.7.l.l.l.i.i.i.l.i.i.i.",
"i.i.i.i.i.s.i.i.d.s.*.&.h h h h * & = = K K R W X.*.d.9.w.w.w.w.e.e.e.8.7.w.w.7.7.7.w.7.7.7.7.w.7.7.7.w.7.7.i.l.l.i.i.i.i.i.i.i.",
"a.i.i.i.a.a.i.i.s.s.d.s.* * * * * * * = T W ..#.d.a.y.i.w.8.w.w.8.e.w.8.8.8.w.8.7.7.7.7.7.7.7.7.7.7.7.7.7.7.i.l.i.i.i.i.i.i.i.i.",
"a.a.i.a.a.a.s.s.s.s.s.s.= & * * * * * * w.s.s.s.i.a.8.f.8.8.w.8.8.e.8.8.8.8.8.8.7.7.7.7.7.7.7.7.7.7.7.w.7.w.f.i.i.i.f.i.i.i.i.a.",
"a.a.a.a.a.a.s.s.s.s.s.s.s.s.s.s.y.a.a.a.y.s.s.s.u.8.8.a.8.8.8.8.8.8.8.8.8.8.8.8.7.7.7.7.7.7.7.7.w.7.7.f.w.f.g.f.i.f.g.f.i.i.f.a.",
"f.a.a.a.a.a.s.s.s.s.s.s.u.s.u.u.y.y.y.y.e.y.s.s.8.8.8.8.8.8.8.8.8.8.8.8.8.8.8.8.7.7.7.w.7.7.7.w.g.7.w.g.f.g.g.g.f.g.g.g.f.a.g.a.",
"g.a.a.a.s.s.s.s.s.s.s.u.u.s.u.u.w.y.y.w.w.y.y.w.8.8.8.8.8.8.8.8.8.8.8.8.8.8.8.8.7.7.w.g.w.7.w.g.g.w.g.g.g.g.g.g.g.g.g.g.f.g.g.f.",
"g.f.a.a.y.y.s.s.s.s.s.u.w.u.u.u.w.w.y.w.w.w.y.w.e.8.8.8.8.8.8.8.8.8.8.8.8.8.8.8.w.7.g.g.g.w.g.g.g.g.g.g.g.g.g.g.g.g.g.g.g.g.g.f.",
"g.g.a.a.e.y.y.y.e.u.u.w.w.w.u.w.w.w.w.w.w.w.w.w.e.8.8.e.8.8.8.8.8.8.8.8.8.8.8.8.g.w.g.g.g.g.g.g.g.g.g.g.g.g.g.g.g.g.g.g.g.g.g.g.",
"g.g.a.y.e.e.y.e.e.e.u.w.w.w.w.w.w.w.w.w.w.w.e.e.e.8.e.e.8.8.8.8.8.8.8.8.8.8.8.w.g.g.g.g.g.g.g.g.g.g.g.g.g.g.g.g.g.g.g.g.g.g.g.g."
};
