/* XPM */
static char *_f2f4b7ee51a46f69363ea631ffc9b24UHFcn4OM7bDc3TPA[] = {
/* columns rows colors chars-per-pixel */
"64 64 15 1 ",
"  c #B5E699",
". c #B5E68C",
"X c #ADDE8B",
"o c #A5D683",
"O c #AFE58C",
"+ c #A7DD84",
"@ c #BBE686",
"# c #C3EE87",
"$ c #CBF68F",
"% c #9FD583",
"& c #8AC573",
"* c #97CE7B",
"= c #AFE592",
"- c #A9E585",
"; c #BDEE8D",
/* pixels */
"  .XXXXXXXXXXXXXXXXXXXXXXXXXooXooooooooX O                    O ",
" .++XXXXXXXXXXXXXXXXXXXXXXXXoXXooooooooXO+  OO   O           O+O",
"O+++XXXXXXXXXXXXXXXXXXXXXXXXXXXooooooooO++OO+O  O+O  O   O   O++",
"++++oXXXoXXoXXXXXXXXXXXXXXXXXXXoo+ooooo+++O+++OO++O O+O O+O O+++",
"o++oooXooXooXoXXXXXXXXXXXXXXXXXooXXoooo++++++++++++O+++O++OOO+++",
"oo+oooooooooXooXXoXXXXXXXXXXXXXXoXXXoo+++++++++++++++++++++O++++",
"oooooooooooooooXooXXXXXXXXXXXXX@XXXXOX+OOXX+++OO+++++++++++++o++",
"oooooooooooooooooooXXoXXXX@XXX@#XX@XXX@@XX@+O@O@O++++++++++++oo+",
"oooooooooooooooooooXooXXX.#@X@#$@X$#X@#@X@#+@#O#@+O#+O+++++o+ooo",
"oooooooooooooooooooooooXX@$#@#$##@#$@#$#@#$##$@$#O#$O#++O+oo+ooo",
"oooooooooooooooooooooooo.@#$#########$###$##$###$@$##$+O#ooooooo",
"oooooooooooooooooooooooX@############################$O#$ooooooo",
"XooooooooXooooooooooooo.########@###@#@###@############$#+oooXoo",
"@XooXoooX@oooXooooooooo@#@##@##@X@#@X@X@#@X#@############.ooX@oX",
"@@oX@XoX@@XoX@Xooooooo@@@X#@X@#@XX@XX@XX@XX@X@#@##########oX@@X@",
"@@X@@@X@@@@X@@XXXooooo@@XX@XXX@XXXXXXXXXXXXXX@@X@##@#######@@@@@",
"@@@@@@@@@@@@@.@X@+oXoo@XXX@XXXXXXXXXXXXXXXXXX@XXX#@X@#@####@..@@",
"@.@@@@@@@@.@...@@@XXXoXXXXXXXXXXXXXXXXXXXXXXXXXXX@XX@.X@#@@...@@",
"...@@...@......@.@XXXXXXXXXXXXXXXXXXXXXXXXXXXXXXXXXX%%%%@.@....@",
".................XXXXXXXXXXXXXXXXXXXXXXXXXXXXXXXXXXX%%%%.X.....@",
"................XXXXXXXXXXXXXXXXXXXX&&%%XX%%&&XXXX%%&&XX.XX.....",
"................XXXXXXXXXXXXXXXXXXXo&&%%XX%%&&XoXX%%&&XXXoXX....",
"............#..#..XXXXXXXXXXXXXXXXoooX&&%%oo&&oo%%&&%%XoXooX....",
".....#..#..#$.#$.#.XX.XXXXXX XX XXoooo&&%%oo&&oo%%&&%%oooooXX#..",
".#..#$#.$#.$##$#.$#X.#XXX X  X   ooooo%%&&oo%%**&&%%oooo%%%%X$#.",
"#$#.$####$########$.#$.X  X      XoXoo%%&&oo%%**&&%%oooX%%%%#$#.",
"$###################$#.           X Xooo%%**oo&&%%oooo**&&#X$$##",
"######################.#=  ==        XoX%%**oo&&%%oooo**&&##$###",
"#######################$#= ==      =  X Xo%%oo**%%oo**&&%%##$###",
"###########@###@@##@####$======  = == =  o%%oo**%%Xo**&&%%####.#",
"@####@@###@@@#@@@@#@@####@===== ===== = =XooXo%%XoOX&&%%#.###.O#",
"@@##@+@@#+@@@+@@@+@@+@##@+=-==  ====    OXoXOo%%OoOO&&%%.O.#.OO#",
"+@@@+++@+++@+++@++@+++@@++========= ====OOoOOXOOOXOOXOO.OOO.OOO.",
"++@++++++++++++@++++++@+++====.==.=======OXOOOOOOOOOOOOOOOOOOOOO",
"++@++++++++++++++++++++++++===;.=;.=.=.===OOOOOOOOOOOOOOOOOOOOOO",
"O++++++++++++++++++++++++++=.=;;=;;=;.==.==OOOOOOOOOOOOOOOOOOOOO",
"OO+++X++X+++X+++X++++++++O+.;.;;.;;.;;=.;.=O.=OOOOOOOOOOOOOOOOOO",
"OO++Xo+XoX+XoX++oX++X++O+;O;;;;;;;;;;;.;;;=.;=.OOOOOOOOOOOOOOOOO",
"XOO+ooXXoo+Xoo+Xoo+Xo+O;O;;;;;;;;@;;;;;#;;.;;=;.O=.OOOOOOOOOOOOO",
"oXOXooXoooXoooXoooXooO;;;X;;@#;;@@@;;;;@;;;;;.;;=.;OOOOOOOOOOOOO",
"ooXoooooooooooooooXoooX;Xo;@@@;@@@@@#;@@;;;@;;;;.;;.OOOOOOOOOOOX",
"oooooooooooooooooooooooXoo@@@@@@@@@@#@@@@;@@;;;;;;;;.OOOOOOOOOXo",
"ooooooooooooooooooooooooooX@@@@@@@@@@@@@@@@@@;;@;;;;.OO.OOO@OOXo",
"oooooooooooooooooooo%%%%ooo@@@X@@X@@@@@@@@@@@;@@;@;;@OO@.O@#.XXX",
"XooXooXooooooooooooo%%%%ooo@@@XX@XX@@X@@@@@@@@@@@@@@#@O#@.#$@XX@",
"@oX@&&%%Xo%%&&oooo%%&&oooooX@XXXXXX@XX@@@X@@@@@@@#@#$#@$#@$##X@#",
"$X@#&&%%@X%%&&oooo%%&&oXooXXXXXXXXXXXXX@XX@@X@@@@#######$####@#$",
"#@#$@#&&%%Xo&&oo%%&&%%XXXoXXXXXXXXXXXXXXXX@XX@@@@##############$",
"##$##$&&%%@o&&Xo%%&&%%XXXXXXXXXXXXXXXXXXXXXXX@@X################",
"######%%&&@X%%**&&%%XXXX%%%%XXXXXXXXXXXXXXXXX@XX##@#############",
"######%%&&@.%%**&&%%XX.X%%%%XXXXXXXXXXXXXXXXXXXX#@X#############",
"#####@##%%**.@&&%%@.X.**&&XXXXXXXXXXXXXXXXXXXXXX@XX@############",
"##@##@@#%%**@@&&%%@@.@**&&XXXXXXXXXXXXXXXXXXXXXXXXXX#@########@#",
"#@@#@@@#@@%%@@**%%.@**&&%%XXXXXXXXXXXXXXoXXXXoXXXXXXX@####@###@@",
"@@@@@@@@@@%%@.**%%..**&&%%.XXXXXXXXXoXXXooXXooXXXoXXXo###@@@#@@@",
"@@@@@.@@@.@@..%%....&&%%@@@XXXXXXXXooXXoooXooooXoooXoo@##@@@@@@@",
".@@@..@@..@...%%....&&%%@.O@XoXXoXXoooXooooooooooooooo@#@@@@@@@@",
"..@.....................@.oOooXooXoooooooooooooooooXoX=@@@=@@@@.",
"................O...O...Ooo.ooooooooooooooooooooXoo=X= =@= =@@=.",
"=...........O.OOOOOOXO..oooooooooooooooooooXoooX oX =   =   =. .",
" ..........OO.OOXOOXXOOXooooooooooooooooooX XoX  X          =  =",
" =..OO..O..OXOOOXXOXXXOXXoooooooooooooooXo   X                 =",
"  ..XOOOXOOXXXOXXXXXXXXXXooXoooooooooooo X                      ",
"  .OXXOXXXOXXXXXXXXXXXXXXoXXoooooooooooX                        "
};
