/* XPM */
static char *c2194864e6384818af89ed9d1ff13ccaqpHKffBLi6xwjgsl[] = {
/* columns rows colors chars-per-pixel */
"64 64 34 1 ",
"  c #B5E699",
". c #B5E68C",
"X c #ADDE8B",
"o c #A5D683",
"O c #3D7943",
"+ c #AFE58C",
"@ c #A7DD84",
"# c #2F6534",
"$ c #68A966",
"% c #509358",
"& c #84AE83",
"* c #82BF7B",
"= c #BBE686",
"- c #C3EE87",
"; c #CBF68F",
": c #7F9B58",
"> c #8AC573",
", c #9FD583",
"< c #678B55",
"1 c #5A804B",
"2 c #84A05D",
"3 c #7A9657",
"4 c #312F28",
"5 c #71905A",
"6 c #6B8B55",
"7 c #464338",
"8 c #5A574A",
"9 c #628650",
"0 c #76965B",
"q c #766959",
"w c #AFE592",
"e c #72955B",
"r c #72955F",
"t c #769664",
/* pixels */
"  .XXXXXXXXXXXXXXXXXXXXXXXXXooOOOOoooooX +                    + ",
" .@@XXXXXXXXXXXXXXXXXXXXX####O$$$$O####X+@  ++   +           +@+",
"+@@@XXXXXXXXXXXXXXXXXXXX#%$$%$$$$$$%$$%#@@++@+  +@+  +   +   +@@",
"@@@@oXXXoXXoXXXXXXXXX###$$$$$$$$$$$$$$$$###@@@++@@+ +@+ +@+ +@@@",
"o@@oooXooXooXoXXXXXX#$$O$$&&$%&&&&%$&&$$O$$#@@@@@@@+@@@+@@+++@@@",
"oo@oooooooooXooXXoX#$$$$$&&&&&&&&&&&&&&$$$$$#@@@@@@@@@@@@@@+@@@@",
"oooooooooooooooXooX#$$$%%&&&&**&&**&&&&%%$$$#@++@@@@@@@@@@@@@o@@",
"oooooooooooooooooo#$$$%&&&&**********&&&&%$$$#+=+@@@@@@@@@@@@oo@",
"ooooooooooooooo####%$$$&&&&**********&&&&$$$%####@+-@+@@@@@o@ooo",
"oooooooooooooo#%$$$$%&&&&&&&********&&&&&&&%$$$$%#-;+-@@+@oo@ooo",
"ooooooooooooo#$$$$$$&&&&&&&**********&&&&&&&$$$$$$#--;@+-ooooooo",
"ooooooooooooo#$$$$$$&&&&&&&**********&&&&&&&$$$$$$#--;+-;ooooooo",
"XooooooooX###%%$$$$$&&&&&&&&***&&***&&&&&&&&$$$$$%%###-;-@oooXoo",
"=XooXoooX#O%%O%%$$$$%&&&&&&&&&&&&&&&&&&&&&&%$$$$%%O%%O#--.ooX=oX",
"==oX=XoX#%%%O%$$$$$$$%$&&&&&&&&&&&&&&&&&&$%$$$$$$$%O%%%#--oX==X=",
"==X===X=#O%O$$$$$$$$$%&&&&&&&&&&&&&&&&&&&&%$$$$$$$$$O%O#---=====",
"=======#O%%O$$$$$$$$$$&&&&&&&&&&&&&&&&&&&&$$$$$$$$$$O%%O#--=..==",
"=.=====#%%%O%$$$$$$$$$$&%$&&&&&&&&&&&&$%&$$$$$$$$$$%O%%%#==...==",
"...==..#%%%%O%%$$$$$$$$$%&&&&&&&&&&&&&&%$$$$$$$$$%%O%%%%#.=....=",
"........#%%%%O$$$$$$$$$$$&&&&&&&&&&&&&&$$$$$$$$$$$O%%%%#.X.....=",
"......####O%%O$$$$$$$$$$$$&&$%&&&&%$&&$$$$$$$$$$$$O%%O####X.....",
".....##OO%%%%%O$$%$$$$$$$$$%%$$$$$$%%$$$$$$$$$%$$O%%%%%OO##X....",
".....#OO%%%%%%%OO%%$$$$$$$$$$$$$$$$$$$$$$$$$$%%OO%%%%%%%OO#X....",
"....#OOO%%%%%%%%%%%$$$$$$$$$$$$$$$$$$$$$$$$$$%%%%%%%%%%%OOO#X-..",
".-..#OO%%%%%%%%%%%%$$$%%$$$$$$$$$$$$$$$$%%$$$%%%%%%%%%%%%OO#X;-.",
"-;-.#OO%O%%%%%%%%%$$$$%%$$$$$$$$$$$$$$$$%%$$$$%%%%%%%%%O%OO#-;-.",
";---#OO#%%%%%%%%%%$$$$$$$$$$$$$$$$$$$$$$$$$$$$%%%%%%%%%%#OO#;;--",
"----##O#%%%%%%%%%%$$$$$$$$$$$$$$$$$$$$$$$$$$$$%%%%%%%%%%#O##;---",
"-----#OO#%%%OO%%%%%$$$$$$$$$$$$$$$$$$$$$$$$$$%%%%%OO%%%#OO#-;---",
"-----#O#O%%%OO%%%%%%%$$$$$$$$$$$$$$$$$$$$$$%%%%%%%OO%%%O#O#---.-",
"=----#O#%%%%%%%%%%%%O$$$$$$$$$$$$$$$$$$$$$$O%%%%%%%%%%%%#O#--.+-",
"==--##O#%%%%%%%%%%%%O%$O$$$$$$$$$$$$$$$$O$%O%%%%%%%%%%%%#O##.++-",
"@===#OOO#%O%%%O%%%%%%OO%$$$$$$$$$$$$$$$$%OO%%%%%%O%%%O%#OOO#+++.",
"@@=@#OOOO#%%%O#%%%%%%%%%%$$$O$$$$$$O$$$%%%%%%%%%%#O%%%#OOOO#++++",
"@@=@#OOOOO####O#%O%%%%%%%%%%%O$$$$O%%%%%%%%%%%O%#O####OOOOO#++++",
"+@@@#OOOOOOOOOOO###%%%%%%%%%%%%%%%%%%%%%%%%%%###OOOOOOOOOOO#++++",
"++@@@#OO#OOOOOOOOO#O%%%%%%%%%%%%%%%%%%%%%%%%O#OOOOOOOOO#OO#+++++",
"++@@Xo##OOOOOOOOOOO%%%%%%%%%%%%%%%%%%%%%%%%%%OOOOOOOOOOO##++++++",
"X++@oo#OOOOOOOOOOOO%%%%%%%%%%%%%%%%%%%%%%%%%%OOOOOOOOOOOO#++++++",
"oX+Xoo#O#OOOOOOOOOO#O%%%%%%%%%%%%%%%%%%%%%%O#OOOOOOOOOO#O#++++++",
"ooXooo##OOOOO#OOOOO#%%%%%%%%%%%%%%%%%%%%%%%%#OOOOO#OOOOO##+++++X",
"ooooooo#OOOO#OOOOOOO#%%O%%%%%%%%%%%%%%%%O%%#OOOOOOO#OOOO#+++++Xo",
"ooooooo##OOO#OOOOOOOO###%%%%O%%%%%%O%%%%###OOOOOOOO#OOO##++=++Xo",
"oooooooo#####OOOO#OOOOO#O%%O#%%%%%%#O%%O#OOOOO#OOOO#####.+=-.XXX",
"XooXooXoo#####OO##OOOOOO#####%%%%%%#####OOOOOO##OO#####:=.-;=XX=",
"=oX=>>,,Xo<<1######OOOOOOOOOO#%%%%#OOOOOOOOOO######:2:32-=;--X=-",
";X=->>,,=X<<11##44#OOOO#OOOOOOOOOOOOOOOO#OOOO#44##::::::;----=-;",
"-=-;=->>,<561164784#OOO#OOOOOOOOOOOOOOOO#OOO#4874::::::::------;",
"--;--;>>,<361154884#######OO#OOOOOO#OO#######4884::::::::-------",
"------,,>135<<948884###4######OOOO######4###48884:3::::::-------",
"------,,>130<<9947874444################44447874:35::::::-------",
"-----=--,,990311<444778q4##44######44##4q87744453553::::--------",
"--=--==-,,993311<<3347qq844874####478448qq7455555555:3::------=-",
"-==-===-==<<3399<<0348q887887844448788788q845655555553::--=---==",
"==========,<3099<<0048q877888q8888q888778q846655565556:--===-===",
"=====.===.=300<<0000488778888qqqqqq88887788466656665663--=======",
".===..==..=.00<<00001447488888qqqq88888474466666666666=-========",
"..=..........0000000000448887877778788844666666666656Xw===w====.",
"..............00e000e000e78874444447887666666666566rXw w=w w==w.",
"w...........+.+eeeee5e00667446666664476666656665t65 w   w   w. .",
" ..........++.++Xee55ee56666666666666666665t565ttX          w  w",
" w..++..+..+X+++XX+555e5566666666666666656ttt5t                w",
"  ..X+++X++XXX+XXXXXX5555665666666666666t5ttt                   ",
"  .+XX+XXX+XXXXXXXXXXXX55655666666666665ttt                     "
};
